<svg xmlns="http://www.w3.org/2000/svg" width="37" height="33.968"><path d="M.975 33.98a.957.957 0 01-.669-.272.922.922 0 01-.278-.659L0 12.848v-.017a.927.927 0 01.408-.754L5.73 8.461V4.623a.94.94 0 01.948-.932h6.067L17.962.145a.961.961 0 011.079 0l5.185 3.545h6.093a.94.94 0 01.947.932v3.882l5.3 3.621a.933.933 0 01.373.519.528.528 0 01.034.184L37 32.999a.941.941 0 01-.946.933L.977 33.98zm2.773-1.867l29.478-.041-14.712-11.224zm-1.828-.965l11.443-8.73L1.9 14.625zM23.64 22.4l11.461 8.744-.023-16.565zM7.626 16.252l7.308 4.968 3-2.288a.959.959 0 011.148-.008l.013.008 2.977 2.272 7.3-4.993V5.555H7.626v10.7zm-5.013-3.408l3.118 2.121v-4.241zm28.654 2.072l3.028-2.071-3.028-2.07v4.141zM16.079 3.691h4.828L18.5 2.046zm-3.994 12.3a.933.933 0 110-1.865h12.83a.933.933 0 110 1.865h-12.83zm0-4.847a.932.932 0 110-1.864h12.83a.932.932 0 110 1.864h-12.83z" fill-rule="evenodd" fill="#a3bbc8"/></svg>